<?xml version="1.0" encoding="UTF-8" standalone="no"?>
<!-- Created with Inkscape (http://www.inkscape.org/) -->
<svg xmlns:dc="http://purl.org/dc/elements/1.1/" xmlns:cc="http://creativecommons.org/ns#" xmlns:rdf="http://www.w3.org/1999/02/22-rdf-syntax-ns#" xmlns:svg="http://www.w3.org/2000/svg" xmlns="http://www.w3.org/2000/svg" xmlns:sodipodi="http://sodipodi.sourceforge.net/DTD/sodipodi-0.dtd" xmlns:inkscape="http://www.inkscape.org/namespaces/inkscape" width="603.55865" height="560.17163" id="svg5980" version="1.1" inkscape:version="0.47pre4 " sodipodi:docname="New document 16">
  <defs id="defs5982">
    <inkscape:perspective sodipodi:type="inkscape:persp3d" inkscape:vp_x="0 : 526.18109 : 1" inkscape:vp_y="0 : 1000 : 0" inkscape:vp_z="744.09448 : 526.18109 : 1" inkscape:persp3d-origin="372.04724 : 350.78739 : 1" id="perspective5988"/>
    <inkscape:perspective id="perspective5998" inkscape:persp3d-origin="0.5 : 0.33333333 : 1" inkscape:vp_z="1 : 0.5 : 1" inkscape:vp_y="0 : 1000 : 0" inkscape:vp_x="0 : 0.5 : 1" sodipodi:type="inkscape:persp3d"/>
    <pattern patternUnits="userSpaceOnUse" width="110.52768" height="110.5063" patternTransform="matrix(1.19708, 0, 0, 1.19708, -828.622, 854.888)" id="pattern5922">
      <path id="path5920" d="m 5.35645,110.40625 c -0.0274,-0.49578 0.91371,-2.06731 1.6217,-2.70803 0.96619,-0.87439 2.12475,-0.31654 3.03072,1.45929 0.37845,0.74183 0.61297,1.34878 0.52116,1.34878 -0.0918,0 -0.46405,-0.58241 -0.8272,-1.29425 -1.10654,-2.16898 -2.45734,-2.08831 -3.67598,0.21953 -0.3606,0.6829 -0.66229,1.12151 -0.6704,0.97468 z m 23.63465,-0.0656 c -0.23471,-0.2347 -12.33156,-4.88105 -13.10318,-5.03287 -0.87226,-0.17162 -3.19413,-1.73892 -3.41017,-2.30191 -0.28085,-0.73186 0.78513,-2.04091 2.13579,-2.62284 0.68454,-0.29493 3.87373,-1.50378 7.08709,-2.68633 3.21337,-1.18256 6.28319,-2.32146 6.82184,-2.53089 l 0.97937,-0.38079 -1.61157,-1.14579 c -2.00342,-1.42438 -2.01772,-1.4392 -1.32912,-1.37815 0.37564,0.0333 0.72863,-0.39735 1.05356,-1.28535 0.92215,-2.52007 1.8124,-5.67785 2.25894,-8.01254 0.25788,-1.34833 0.45972,-1.90457 0.47711,-1.31484 0.0348,1.17979 -0.9914,5.26986 -2.16486,8.62854 -0.44534,1.27468 -0.80869,2.40408 -0.80744,2.50978 0.001,0.10571 0.52708,0.54959 1.1685,0.98641 0.64142,0.43681 1.16621,0.90751 1.16621,1.046 0,0.13848 -1.95305,0.98016 -4.34012,1.8704 -2.38707,0.89024 -4.34013,1.71451 -4.34013,1.83172 0,0.11721 1.55836,0.54172 3.46303,0.94336 1.90467,0.40164 4.25374,0.93883 5.22017,1.19377 1.67592,0.4421 2.00195,0.40788 7.05343,-0.74027 2.91296,-0.66209 5.29629,-1.30872 5.29629,-1.43696 0,-0.12825 -1.95305,-0.95166 -4.34012,-1.82982 -2.38707,-0.87816 -4.34013,-1.72038 -4.34013,-1.87161 0,-0.15123 0.26291,-0.42795 0.58425,-0.61492 1.92095,-1.11777 1.90034,-0.95027 0.62446,-5.07754 -1.16935,-3.78263 -2.0554,-7.89254 -1.76431,-8.18362 0.0847,-0.0847 0.33168,0.89899 0.54878,2.18606 0.21708,1.28707 0.88094,3.88844 1.47521,5.78082 0.85154,2.71156 1.20427,3.43007 1.66453,3.39061 0.70923,-0.0608 0.69942,-0.0505 -1.31001,1.37815 -1.5814,1.12434 -1.59636,1.1515 -0.79914,1.45079 0.44684,0.16775 3.74202,1.39303 7.32263,2.72284 3.5806,1.32981 6.91888,2.62811 7.41839,2.88511 1.03282,0.53139 1.73173,1.62752 1.47098,2.30702 -0.21633,0.56375 -2.53769,2.13109 -3.41051,2.30271 -0.35088,0.069 -3.55999,1.26193 -7.13138,2.65096 -3.57138,1.38904 -6.54844,2.47051 -6.61569,2.40326 -0.0672,-0.0672 1.94922,-0.92373 4.48102,-1.90331 l 4.60327,-1.78104 -4.49778,-1.09158 c -2.47377,-0.60036 -5.17383,-1.12178 -6.00012,-1.15871 -1.63401,-0.073 -11.19532,2.0582 -10.77444,2.40163 0.14189,0.11578 2.09836,0.9294 4.34771,1.80806 2.24935,0.87866 4.08973,1.6587 4.08973,1.73344 0,0.1911 -0.52276,0.16955 -0.72207,-0.0298 z m -2.4762,-5.32007 4.9812,-1.17374 2.53056,0.51508 c 1.39181,0.28329 3.98792,0.88099 5.76915,1.32822 l 3.23858,0.81316 1.76925,-0.70117 c 0.97309,-0.38565 2.04069,-0.75499 2.37245,-0.82076 0.90904,-0.18021 2.81054,-1.43311 3.02562,-1.99358 0.47138,-1.2284 -0.65397,-2.04371 -4.80692,-3.48259 l -2.17967,-0.75519 -5.93968,1.37637 c -3.26683,0.757 -6.04185,1.31515 -6.16672,1.24033 -0.12488,-0.0748 -2.67344,-0.68852 -5.66348,-1.36378 -6.01465,-1.35834 -5.91146,-1.36378 -10.46183,0.5512 -1.9404,0.8166 -2.5919,1.97848 -1.64201,2.92836 0.65611,0.65611 2.68368,1.82477 2.68368,1.54683 0,-0.0838 0.86385,0.21225 1.91967,0.65796 2.14794,0.90675 1.76677,0.93641 8.57015,-0.6667 z m 26.23982,5.2847 c -0.008,-0.52532 1.39163,-2.50866 2.06611,-2.92811 0.44741,-0.27825 0.75787,-0.17778 1.4506,0.46945 0.48476,0.45291 1.09458,1.27418 1.35518,1.82504 0.26753,0.56553 0.29006,0.72337 0.0517,0.36255 -0.23213,-0.35146 -0.82665,-1.10263 -1.32114,-1.66928 -1.07818,-1.2355 -1.69368,-1.01858 -2.85131,1.00488 -0.41013,0.71688 -0.74816,1.13784 -0.75118,0.93547 z m 17.30549,-2.41857 c -3.60784,-1.40535 -6.76278,-2.60193 -7.01097,-2.65907 -0.75575,-0.174 -2.97683,-1.73412 -3.1643,-2.22265 -0.26074,-0.67949 0.43816,-1.77563 1.47098,-2.30701 0.49951,-0.257 3.83779,-1.5553 7.41839,-2.88511 3.58061,-1.32982 6.87579,-2.5551 7.32263,-2.72285 0.79722,-0.29929 0.78226,-0.32645 -0.79914,-1.45078 -2.00943,-1.42866 -2.01924,-1.43898 -1.31001,-1.37816 0.46026,0.0395 0.81299,-0.67905 1.66453,-3.39061 0.59427,-1.89238 1.25813,-4.49374 1.47522,-5.78081 0.21709,-1.28707 0.46404,-2.2708 0.54877,-2.18607 0.29109,0.29109 -0.59496,4.401 -1.76431,8.18362 -1.27588,4.12728 -1.29649,3.95977 0.62446,5.07754 0.32134,0.18698 0.58425,0.46369 0.58425,0.61492 0,0.15123 -1.95306,0.99346 -4.34013,1.87161 -2.38707,0.87816 -4.34012,1.69767 -4.34012,1.82113 0,0.12347 2.3941,0.76726 5.32022,1.43065 5.05096,1.14513 5.40793,1.18303 7.05343,0.74896 0.95327,-0.25147 3.29157,-0.78582 5.19624,-1.18746 1.90467,-0.40164 3.46303,-0.82615 3.46303,-0.94336 0,-0.11721 -1.95306,-0.94148 -4.34013,-1.83172 -2.38707,-0.89024 -4.34012,-1.746 -4.34012,-1.90169 0,-0.1557 0.26291,-0.43607 0.58424,-0.62304 1.92372,-1.11938 1.90683,-0.88351 0.41102,-5.74117 -0.75515,-2.45235 -1.43329,-5.21 -1.50697,-6.1281 l -0.13397,-1.66928 0.30864,1.67314 c 0.16974,0.92022 0.88516,3.54934 1.5898,5.84247 1.03297,3.36163 1.39576,4.15965 1.87267,4.11927 0.71732,-0.0607 0.70916,-0.0521 -1.30253,1.37815 l -1.61157,1.14579 0.97937,0.38079 c 0.53865,0.20943 3.60847,1.34834 6.82184,2.53089 3.21336,1.18255 6.40255,2.3914 7.08709,2.68633 1.35066,0.58193 2.41664,1.89098 2.13579,2.62284 -0.21604,0.56299 -2.53791,2.13029 -3.41017,2.30191 -0.49119,0.0967 -11.20912,4.1689 -13.40793,5.09432 -0.22953,0.0966 -0.41732,0.0984 -0.41732,0.004 0,-0.0944 1.84038,-0.8905 4.08973,-1.76916 3.87246,-1.51269 5.15614,-2.13695 4.39425,-2.13695 -0.1814,0 -2.57391,-0.52377 -5.31668,-1.16394 l -4.98686,-1.16394 -5.35002,1.19376 c -2.94251,0.65657 -5.38959,1.23243 -5.43794,1.27969 -0.0484,0.0473 1.94225,0.87142 4.42359,1.83147 2.48133,0.96005 4.51151,1.80938 4.51151,1.88739 0,0.2558 -0.43274,0.10393 -7.0605,-2.47774 z m 3.86017,-2.91279 c 5.53283,-1.24791 4.54545,-1.29249 12.24255,0.55279 l 4.20132,1.00721 1.80809,-0.71649 c 0.99445,-0.39407 2.07953,-0.77029 2.41128,-0.83606 1.25681,-0.24915 2.90234,-1.5353 2.89719,-2.26445 -0.01,-1.3659 -0.83091,-1.92128 -4.74038,-3.20564 l -2.24158,-0.73642 -5.43711,1.22791 c -2.99041,0.67535 -5.53234,1.28483 -5.64872,1.3544 -0.11639,0.0696 -2.88717,-0.49008 -6.15731,-1.24366 l -5.94569,-1.37015 -2.18909,0.75852 c -4.2878,1.48572 -5.4014,2.33595 -4.72207,3.6053 0.28589,0.53419 3.03376,2.28678 3.03376,1.93493 0,-0.0909 0.86385,0.19702 1.91967,0.63975 1.18542,0.49707 2.23891,0.7304 2.75431,0.61002 0.45905,-0.10721 3.07525,-0.7003 5.81378,-1.31796 z m 26.57705,4.1836 c 0.90597,-1.77583 2.06453,-2.33368 3.03072,-1.45929 0.70799,0.64072 1.6491,2.21225 1.6217,2.70803 -0.008,0.14683 -0.3098,-0.29178 -0.6704,-0.97468 -1.21863,-2.30784 -2.56944,-2.38851 -3.67598,-0.21953 -0.36315,0.71184 -0.73539,1.29425 -0.8272,1.29425 -0.0918,0 0.14272,-0.60695 0.52116,-1.34878 z M 1.07472,104.47945 c 2.30784,-1.21863 2.38851,-2.56944 0.21953,-3.67598 C 0.58241,100.44032 0,100.06808 0,99.97627 c 0,-0.0918 0.60695,0.14271 1.34878,0.52116 1.77583,0.90597 2.33368,2.06453 1.45929,3.03072 -0.64072,0.70799 -2.21225,1.6491 -2.70803,1.6217 -0.14683,-0.008 0.29178,-0.3098 0.97468,-0.6704 z m 107.92923,0.0703 c -1.61261,-0.98595 -1.99474,-1.60943 -1.56479,-2.55307 0.31457,-0.69039 3.06714,-2.50359 3.06714,-2.02041 0,0.0918 -0.58241,0.46405 -1.29425,0.82721 -2.16898,1.10653 -2.08831,2.45734 0.21953,3.67597 0.6829,0.36061 1.09141,0.66172 0.90779,0.66916 -0.18362,0.007 -0.78456,-0.26206 -1.33542,-0.59886 z M 6.34536,96.76812 C 5.79334,96.00608 5.33053,95.29247 5.31689,95.1823 5.16206,93.93227 4.63464,92.42124 2.51266,87.14825 1.14825,83.7578 0.08227,80.93343 0.14382,80.87188 c 0.0615,-0.0615 0.91822,1.86546 1.90371,4.28225 l 1.79181,4.39415 1.1022,-4.46104 C 5.54775,82.63367 6.04732,79.87502 6.0517,78.95692 6.0557,78.03881 5.5597,75.27895 4.94862,72.82388 l -1.11105,-4.46375 -1.7969,4.39088 c -0.9883,2.41499 -1.84645,4.34135 -1.907,4.2808 -0.0606,-0.0605 1.00302,-2.88222 2.36349,-6.27039 1.36046,-3.38817 2.55087,-6.59429 2.64535,-7.12473 0.20011,-1.12354 1.69153,-3.49569 2.3588,-3.75174 0.6795,-0.26075 1.77563,0.43816 2.30702,1.47097 0.257,0.49951 1.5553,3.83779 2.88511,7.4184 1.32981,3.5806 2.55509,6.87578 2.72284,7.32262 0.29929,0.79723 0.32645,0.78227 1.45079,-0.79913 1.42865,-2.00943 1.43897,-2.01924 1.37815,-1.31001 -0.0395,0.46025 0.67905,0.81298 3.39061,1.66452 1.89238,0.59428 4.49375,1.25813 5.78082,1.47522 1.28707,0.21709 2.2708,0.46404 2.18606,0.54878 -0.29108,0.29109 -4.40099,-0.59497 -8.18362,-1.76431 -4.12727,-1.27589 -3.95977,-1.29649 -5.07754,0.62446 -0.18697,0.32133 -0.46369,0.58424 -0.61492,0.58424 -0.15123,0 -0.99345,-1.95305 -1.87161,-4.34012 -0.87815,-2.38707 -1.69813,-4.34013 -1.82217,-4.34013 -0.12403,0 -0.76002,2.36371 -1.4133,5.2527 l -1.1878,5.25269 1.20513,5.26377 c 0.66281,2.89506 1.28527,5.26376 1.38322,5.26376 0.098,0 0.90649,-1.95306 1.79672,-4.34013 0.89024,-2.38707 1.746,-4.34012 1.90169,-4.34012 0.1557,0 0.43607,0.26291 0.62304,0.58424 1.11938,1.92372 0.88351,1.90683 5.74117,0.41102 2.45236,-0.75515 5.21,-1.43329 6.1281,-1.50697 l 1.66928,-0.13397 -1.67314,0.30863 c -0.92022,0.16975 -3.54934,0.88517 -5.84247,1.58981 -3.36162,1.03297 -4.15964,1.39576 -4.11927,1.87267 0.0607,0.71732 0.0521,0.70916 -1.37815,-1.30253 l -1.14579,-1.61157 -0.38079,0.97937 c -0.20943,0.53865 -1.34834,3.60847 -2.53089,6.82184 -2.81503,7.6493 -3.08202,8.23962 -3.99806,8.83983 -1.12615,0.73788 -1.35509,0.65643 -2.46618,-0.87738 z m 2.78776,0.21724 c 0.50094,-0.50093 1.46277,-2.83191 2.20424,-5.34192 0.35196,-1.19144 0.25186,-1.94736 -0.92839,-7.01097 l -1.32288,-5.67555 1.33842,-5.82345 1.33843,-5.82346 -0.75852,-2.18908 C 9.56194,60.95791 8.7477,59.83291 7.51851,60.30459 6.88396,60.54809 5.68104,62.49078 5.4807,63.59561 5.3955,64.06539 5.03104,65.1976 4.67077,66.11162 l -0.65504,1.66185 1.18635,4.75709 c 0.6525,2.61639 1.19673,5.43314 1.2094,6.25943 0.0127,0.82629 -0.5152,3.7017 -1.17304,6.3898 l -1.19609,4.88744 0.63843,1.68019 c 0.35113,0.9241 0.70961,2.07276 0.79661,2.55258 0.087,0.47981 0.47991,1.39293 0.87312,2.02915 0.78249,1.2661 1.90743,1.53139 2.78261,0.65621 z M 53.7682,96.78925 c -0.56043,-0.77366 -1.03046,-1.49678 -1.04451,-1.60695 -0.0918,-0.71989 -0.47606,-1.79124 -2.4068,-6.71049 -1.18914,-3.02974 -2.26521,-5.84665 -2.39128,-6.2598 -0.32931,-1.07921 -0.67299,-0.94258 -1.88935,0.75118 -0.5934,0.82629 -1.11186,1.50235 -1.15214,1.50235 -0.0403,0 -0.0524,-0.25616 -0.0269,-0.56924 0.0365,-0.44789 -0.84239,-0.84234 -4.12297,-1.85041 -2.29313,-0.70464 -4.92225,-1.42006 -5.84248,-1.5898 l -1.67313,-0.30864 1.66928,0.13397 c 0.9181,0.0737 3.69092,0.75648 6.16181,1.51732 4.94794,1.52358 4.39878,1.56887 5.87646,-0.48469 0.25628,-0.35616 0.55336,-0.56018 0.66017,-0.45337 0.10681,0.10682 0.86971,1.97569 1.69533,4.15306 0.82562,2.17737 1.61646,4.07494 1.75742,4.21683 0.29193,0.29384 2.49491,-8.74451 2.50484,-10.27683 0.008,-1.21338 -2.16366,-10.51328 -2.45485,-10.51328 -0.11309,0 -0.93778,1.95305 -1.83263,4.34012 -0.89484,2.38707 -1.75205,4.34013 -1.9049,4.34013 -0.15285,0 -0.28331,-0.11268 -0.28991,-0.25039 -0.007,-0.13772 -0.35795,-0.67315 -0.78076,-1.18986 l -0.76874,-0.93947 -4.31055,1.31273 c -2.3708,0.72201 -5.13685,1.39774 -6.14676,1.50163 -1.18751,0.12217 -1.54135,0.0905 -1.00157,-0.0896 0.45905,-0.15317 1.28535,-0.30139 1.83621,-0.32938 0.55086,-0.028 2.80439,-0.61282 5.00784,-1.29963 3.14059,-0.97891 3.99625,-1.37188 3.9599,-1.8186 -0.0255,-0.31342 -0.0134,-0.56985 0.0269,-0.56985 0.0403,0 0.55875,0.67605 1.15215,1.50235 1.04574,1.45617 1.70513,1.89373 1.70513,1.1315 0,-0.20397 1.0643,-3.02088 2.36512,-6.2598 1.30081,-3.23892 2.42591,-6.18941 2.50021,-6.55666 0.22643,-1.11916 1.9718,-3.33855 2.62549,-3.33855 0.75365,0 2.57828,2.18305 2.70575,3.23726 0.0511,0.42295 1.15812,3.41903 2.45996,6.65795 1.30184,3.23892 2.36698,6.05583 2.36698,6.2598 0,0.76223 0.65939,0.32467 1.70513,-1.1315 0.5934,-0.8263 1.11187,-1.50235 1.15215,-1.50235 0.0403,0 0.0524,0.25643 0.0269,0.56985 -0.0364,0.44672 0.8193,0.83969 3.9599,1.8186 2.20345,0.68681 4.45697,1.27164 5.00784,1.29963 0.55086,0.028 1.37715,0.17621 1.8362,0.32938 0.53978,0.18011 0.18594,0.21176 -1.00157,0.0896 -1.00991,-0.10389 -3.77595,-0.77963 -6.14675,-1.50163 l -4.31055,-1.31273 -0.76875,0.93947 c -0.42281,0.51671 -0.77415,1.05214 -0.78075,1.18986 -0.007,0.13771 -0.13707,0.25039 -0.28992,0.25039 -0.15284,0 -1.01005,-1.95306 -1.9049,-4.34013 -0.89485,-2.38707 -1.71878,-4.34012 -1.83097,-4.34012 -0.11218,0 -0.73847,2.36371 -1.39175,5.25269 l -1.1878,5.2527 1.20294,5.2542 c 0.66161,2.88981 1.31055,5.14583 1.44209,5.01338 0.13153,-0.13246 0.91465,-2.02232 1.74027,-4.19969 0.82562,-2.17737 1.58852,-4.04624 1.69533,-4.15306 0.10681,-0.10681 0.40389,0.0972 0.66018,0.45337 1.47767,2.05356 0.92852,2.00827 5.87645,0.48469 2.47089,-0.76084 5.24371,-1.44364 6.16181,-1.51732 l 1.66928,-0.13397 -1.67314,0.30863 c -0.92022,0.16975 -3.54934,0.88517 -5.84247,1.58981 -3.28058,1.00807 -4.15946,1.40252 -4.12297,1.85041 0.0255,0.31308 0.0134,0.56924 -0.0269,0.56924 -0.0403,0 -0.55875,-0.67606 -1.15215,-1.50235 -1.21636,-1.69376 -1.56003,-1.8304 -1.88934,-0.75118 -0.12607,0.41315 -1.20139,3.23006 -2.38961,6.2598 -1.18821,3.02974 -2.20218,5.85467 -2.25325,6.27763 -0.11297,0.93557 -1.88604,3.19724 -2.6199,3.34186 -0.31282,0.0616 -0.94917,-0.473 -1.54973,-1.30205 z m 3.30086,-0.77284 c 0.3889,-0.62925 0.6678,-1.26965 0.61979,-1.42311 -0.048,-0.15345 0.25537,-1.18831 0.67421,-2.29967 l 0.76152,-2.02065 -1.31633,-5.6694 -1.31632,-5.66939 1.30828,-5.66419 1.30827,-5.66418 -0.74285,-1.99039 c -0.40858,-1.09471 -0.76188,-2.24848 -0.78512,-2.56392 -0.0593,-0.80496 -1.76212,-2.95745 -2.33961,-2.95745 -0.5269,0 -2.10158,2.19017 -2.30174,3.20139 -0.0695,0.35088 -0.44895,1.45226 -0.84334,2.44753 l -0.71707,1.80958 1.23445,5.03447 c 0.67896,2.76896 1.23126,5.63541 1.22735,6.36989 -0.004,0.73448 -0.55988,3.60895 -1.23548,6.38771 l -1.22836,5.0523 0.8298,2.04214 c 0.45639,1.12318 0.76135,2.04215 0.67769,2.04215 -0.2804,0 0.89451,2.03104 1.55972,2.69625 0.82274,0.82274 1.61589,0.47194 2.62514,-1.16106 z m 44.3706,1.37936 c -0.46459,-0.43057 -1.09054,-1.45027 -1.391,-2.26602 -1.44653,-3.92728 -4.54868,-12.27511 -4.88519,-13.14592 l -0.37845,-0.97936 -1.14579,1.61156 c -1.43026,2.01169 -1.43889,2.01985 -1.37815,1.30253 0.0404,-0.47691 -0.75765,-0.83969 -4.11927,-1.87267 -2.29313,-0.70464 -4.92225,-1.42006 -5.84247,-1.5898 l -1.67314,-0.30864 1.66928,0.13397 c 0.9181,0.0737 3.67574,0.75182 6.1281,1.50697 4.85766,1.49581 4.62179,1.5127 5.74117,-0.41101 0.18697,-0.32134 0.46734,-0.58425 0.62304,-0.58425 0.15569,0 1.01145,1.95305 1.90169,4.34013 0.89023,2.38706 1.71451,4.34012 1.83172,4.34012 0.11721,0 0.54172,-1.55836 0.94335,-3.46303 0.40164,-1.90467 0.936,-4.24297 1.18747,-5.19624 0.43407,-1.6455 0.39617,-2.00247 -0.74896,-7.05344 -0.66339,-2.92612 -1.30718,-5.32021 -1.43065,-5.32021 -0.12347,0 -0.94297,1.95305 -1.82113,4.34012 -0.87816,2.38707 -1.72038,4.34013 -1.87161,4.34013 -0.15123,0 -0.42795,-0.26291 -0.61492,-0.58425 -1.11777,-1.92095 -0.95027,-1.90034 -5.07754,-0.62446 -3.78263,1.16935 -7.89254,2.0554 -8.18362,1.76431 -0.0847,-0.0847 0.89899,-0.33168 2.18606,-0.54878 1.28708,-0.21708 3.88844,-0.88094 5.78082,-1.47521 2.71156,-0.85154 3.43007,-1.20427 3.39061,-1.66453 -0.0608,-0.70923 -0.0505,-0.69942 1.37815,1.31001 1.12434,1.5814 1.1515,1.59636 1.45079,0.79914 0.16775,-0.44684 1.39303,-3.74202 2.72284,-7.32263 1.32981,-3.5806 2.62811,-6.91888 2.88511,-7.41839 0.53139,-1.03282 1.62752,-1.73173 2.30702,-1.47098 0.56375,0.21633 2.13109,2.53769 2.30271,3.41051 0.069,0.35088 1.26193,3.55999 2.65096,7.13138 1.38904,3.57138 2.47051,6.54844 2.40326,6.61569 -0.0672,0.0672 -0.91159,-1.91784 -1.87633,-4.41129 -0.96474,-2.49345 -1.79274,-4.49398 -1.84,-4.44562 -0.0473,0.0484 -0.62312,2.49543 -1.27968,5.43794 l -1.19376,5.35002 1.16394,4.98686 c 0.64017,2.74277 1.16394,5.13528 1.16394,5.31667 0,0.7619 0.62426,-0.52179 2.13694,-4.39424 0.87866,-2.24935 1.67478,-4.08973 1.76916,-4.08973 0.0944,0 0.0926,0.18779 -0.004,0.41732 -0.95827,2.27688 -4.99915,12.92513 -5.09943,13.4377 -0.18774,0.95954 -1.9125,3.31751 -2.51093,3.43276 -0.27905,0.0537 -0.88749,-0.25457 -1.35208,-0.68514 z m 2.71167,-1.0594 c 0.39075,-0.63226 0.76427,-1.42099 0.83004,-1.75275 0.0658,-0.33175 0.44135,-1.41518 0.83462,-2.40762 l 0.71504,-1.80443 -1.22884,-5.03961 c -0.67586,-2.77179 -1.21728,-5.71568 -1.20317,-6.54197 0.0141,-0.82629 0.55464,-3.72668 1.20115,-6.4453 l 1.17547,-4.94295 -0.68734,-1.73417 c -0.37805,-0.95379 -0.74116,-2.0056 -0.80693,-2.33736 -0.18021,-0.90904 -1.43311,-2.81054 -1.99358,-3.02562 -1.22919,-0.47168 -2.04343,0.65332 -3.48591,4.81634 l -0.75852,2.18908 1.37015,5.9457 c 0.75358,3.27014 1.31323,6.04092 1.24366,6.15731 -0.0696,0.11638 -0.67905,2.65831 -1.3544,5.64872 l -1.22791,5.43711 0.73642,2.24158 c 0.84795,2.58107 1.58039,4.13896 2.11096,4.48999 0.86576,0.57278 1.8341,0.23047 2.52909,-0.89405 z M 30.09705,76.31319 c -0.063,-1.2267 -1.5762,-6.99848 -2.38962,-9.11454 -0.3953,-1.02834 -0.80079,-1.57948 -1.14009,-1.5496 -0.28962,0.0255 -0.52658,0.0134 -0.52658,-0.0269 0,-0.0403 0.67606,-0.55875 1.50235,-1.15215 1.69376,-1.21636 1.8304,-1.56004 0.75118,-1.88935 -0.41315,-0.12606 -3.23006,-1.20139 -6.2598,-2.3896 -3.02974,-1.18822 -5.85467,-2.20218 -6.27763,-2.25326 -1.05411,-0.12728 -3.23726,-1.9519 -3.23726,-2.70561 0,-0.65377 2.21958,-2.39919 3.33855,-2.62537 0.36725,-0.0742 3.1466,-1.1063 6.17634,-2.29349 3.02974,-1.1872 5.84665,-2.26168 6.2598,-2.38775 1.07922,-0.32931 0.94258,-0.67299 -0.75118,-1.88935 -0.82629,-0.5934 -1.50235,-1.11186 -1.50235,-1.15214 0,-0.0403 0.23696,-0.0524 0.52658,-0.0269 0.3393,0.0299 0.74479,-0.52126 1.14009,-1.54959 0.68209,-1.7744 2.22634,-7.53169 2.43748,-9.08743 l 0.13593,-1.00157 0.0492,1.00157 c 0.0544,1.10882 -1.25178,6.25853 -2.361,9.30811 -0.79226,2.17814 -0.90427,1.86699 1.22323,3.39787 0.35616,0.25628 0.56018,0.55336 0.45337,0.66018 -0.10682,0.10681 -1.97569,0.8697 -4.15306,1.69532 -2.17737,0.82562 -4.07494,1.61646 -4.21683,1.75743 -0.33098,0.32882 8.88056,2.51416 10.48108,2.48653 1.671,-0.0289 10.71796,-2.17518 10.40008,-2.46734 -0.14189,-0.13041 -2.13591,-0.94492 -4.43117,-1.81001 -2.29526,-0.8651 -4.23926,-1.63664 -4.31999,-1.71453 -0.0807,-0.0779 0.14462,-0.35129 0.50078,-0.60758 2.0532,-1.47741 2.00237,-0.94479 0.54484,-5.70953 -0.72776,-2.37908 -1.41066,-5.15189 -1.51756,-6.1618 -0.15728,-1.4859 -0.0735,-1.29482 0.43923,1.00156 1.11229,4.98177 2.48542,8.85316 3.12153,8.80081 0.3099,-0.0255 0.56345,-0.0134 0.56345,0.0269 0,0.0403 -0.67605,0.55875 -1.50235,1.15215 -1.45617,1.04574 -1.89373,1.70513 -1.1315,1.70513 0.20397,0 3.02088,1.0643 6.2598,2.36511 3.23892,1.30082 6.18942,2.42591 6.55666,2.50021 1.11916,0.22644 3.33856,1.9718 3.33856,2.6255 0,0.75365 -2.18306,2.57827 -3.23727,2.70574 -0.42295,0.0511 -3.41903,1.15813 -6.65795,2.45997 -3.23892,1.30184 -6.05583,2.36698 -6.2598,2.36698 -0.76223,0 -0.32467,0.65939 1.1315,1.70513 0.8263,0.5934 1.50235,1.11187 1.50235,1.15215 0,0.0403 -0.25355,0.0524 -0.56345,0.0269 -0.63611,-0.0523 -2.00924,3.81905 -3.12153,8.80081 -0.51272,2.29638 -0.59651,2.48746 -0.43923,1.00157 0.1069,-1.00992 0.78773,-3.77596 1.51294,-6.14676 l 1.31858,-4.31055 -0.93947,-0.76874 c -0.51671,-0.42281 -1.05214,-0.77415 -1.18986,-0.78076 -0.13771,-0.007 -0.25039,-0.13706 -0.25039,-0.28991 0,-0.15285 1.95306,-1.01006 4.34013,-1.9049 2.38707,-0.89485 4.34012,-1.74632 4.34012,-1.89216 0,-0.14584 -0.12101,-0.26517 -0.26891,-0.26517 -0.14789,0 -2.5056,-0.50834 -5.23935,-1.12965 l -4.97046,-1.12966 -5.26754,1.20599 c -2.89714,0.6633 -5.15916,1.31361 -5.02671,1.44515 0.13246,0.13153 2.02232,0.91465 4.19969,1.74027 2.17737,0.82562 4.04624,1.58852 4.15306,1.69533 0.10681,0.10681 -0.0972,0.40389 -0.45337,0.66018 -2.1035,1.51361 -2.00586,1.15209 -1.05485,3.90601 1.28276,3.71458 2.29718,7.93676 2.14462,8.92626 -0.13124,0.85123 -0.13632,0.84851 -0.18497,-0.0992 z M 26.01697,57.78172 c 5.35457,-1.24322 5.73714,-1.28825 7.42514,-0.87382 0.97883,0.24031 3.5232,0.83654 5.65415,1.32494 l 3.87447,0.88802 1.80108,-0.71554 c 0.9906,-0.39354 2.13479,-0.75438 2.54264,-0.80185 0.95971,-0.11172 3.09779,-1.74236 3.09779,-2.36257 0,-0.5269 -2.19017,-2.10158 -3.20139,-2.30174 -0.35088,-0.0694 -1.42367,-0.43768 -2.38398,-0.81829 l -1.74603,-0.69202 -4.93109,1.19495 c -2.7121,0.65722 -5.60715,1.19984 -6.43344,1.20582 -0.82629,0.006 -3.77588,-0.54349 -6.55464,-1.22102 l -5.0523,-1.23189 -2.04214,0.8298 c -1.12318,0.45639 -2.04215,0.76135 -2.04215,0.67769 0,-0.2804 -2.03104,0.89451 -2.69625,1.55972 -0.50686,0.50686 -0.58029,0.80207 -0.32033,1.28783 0.37528,0.7012 2.62003,2.1993 2.89037,1.92896 0.0949,-0.0949 1.02595,0.1821 2.06903,0.61552 1.04309,0.43342 2.01062,0.79439 2.15008,0.80215 0.13945,0.008 2.794,-0.57573 5.89899,-1.29666 z M 77.28729,75.5349 c -0.1145,-0.8722 -0.76798,-3.46376 -1.45217,-5.75902 -0.985,-3.3044 -1.36294,-4.16355 -1.8154,-4.12683 -0.31428,0.0255 -0.57142,0.0134 -0.57142,-0.0269 0,-0.0403 0.67605,-0.55875 1.50235,-1.15215 1.45617,-1.04574 1.89373,-1.70513 1.1315,-1.70513 -0.20397,0 -3.02088,-1.06514 -6.2598,-2.36698 -3.23892,-1.30184 -6.235,-2.40883 -6.65795,-2.45997 -1.05421,-0.12747 -3.23727,-1.95209 -3.23727,-2.70574 0,-0.6537 2.2194,-2.39906 3.33856,-2.6255 0.36724,-0.0743 3.31774,-1.19939 6.55666,-2.50021 3.23892,-1.30081 6.05583,-2.36511 6.2598,-2.36511 0.76223,0 0.32467,-0.65939 -1.1315,-1.70513 -0.8263,-0.5934 -1.50235,-1.11187 -1.50235,-1.15215 0,-0.0403 0.25643,-0.0524 0.56985,-0.0269 0.44672,0.0364 0.83969,-0.8193 1.8186,-3.9599 0.68681,-2.20345 1.27165,-4.45697 1.29963,-5.00784 0.028,-0.55086 0.17621,-1.37715 0.32938,-1.8362 0.18011,-0.53978 0.21176,-0.18594 0.0896,1.00157 -0.10389,1.00991 -0.77963,3.77595 -1.50163,6.14675 l -1.31273,4.31055 0.93947,0.76875 c 0.51671,0.42281 1.05214,0.77415 1.18986,0.78075 0.13771,0.007 0.25039,0.13707 0.25039,0.28992 0,0.15284 -1.95306,1.01005 -4.34013,1.9049 -2.38707,0.89485 -4.34012,1.71953 -4.34012,1.83263 0,0.29119 9.2999,2.46271 10.51328,2.45485 1.53232,-0.01 10.57067,-2.21291 10.27683,-2.50484 -0.14189,-0.14096 -2.03946,-0.9318 -4.21683,-1.75742 -2.17737,-0.82562 -4.04624,-1.58852 -4.15306,-1.69533 -0.10681,-0.10681 0.0972,-0.40389 0.45337,-0.66017 2.05356,-1.47768 2.00827,-0.92853 0.48469,-5.87646 -0.76084,-2.47089 -1.44364,-5.24371 -1.51732,-6.16181 l -0.13397,-1.66928 0.30864,1.67314 c 0.16974,0.92023 0.88516,3.54934 1.5898,5.84248 1.00807,3.28058 1.40252,4.15945 1.85041,4.12297 0.31308,-0.0255 0.56924,-0.0134 0.56924,0.0269 0,0.0403 -0.67606,0.55875 -1.50235,1.15215 -1.69376,1.21636 -1.8304,1.56003 -0.75118,1.88934 0.41315,0.12607 3.23006,1.20056 6.2598,2.38775 3.02974,1.1872 5.80909,2.21927 6.17634,2.2935 1.11897,0.22617 3.33855,1.9716 3.33855,2.62536 0,0.75372 -2.18315,2.57833 -3.23726,2.70562 -0.42295,0.0511 -3.24789,1.06504 -6.27763,2.25325 -3.02974,1.18821 -5.84665,2.26354 -6.2598,2.38961 -1.07922,0.32931 -0.94258,0.67298 0.75118,1.88934 0.82629,0.5934 1.50235,1.11187 1.50235,1.15215 0,0.0403 -0.25616,0.0524 -0.56924,0.0269 -0.44789,-0.0365 -0.84234,0.8424 -1.85041,4.12297 -0.70464,2.29314 -1.42006,4.92225 -1.5898,5.84248 l -0.30864,1.67314 0.13397,-1.66928 c 0.0737,-0.9181 0.75648,-3.69092 1.51732,-6.16181 1.52358,-4.94794 1.56887,-4.39878 -0.48469,-5.87646 -0.35616,-0.25628 -0.56018,-0.55336 -0.45337,-0.66017 0.10682,-0.10681 1.97569,-0.86971 4.15306,-1.69533 2.17737,-0.82562 4.06723,-1.60874 4.19969,-1.74028 0.13245,-0.13153 -2.12356,-0.78047 -5.01338,-1.44209 l -5.2542,-1.20293 -5.2527,1.18779 c -2.88898,0.65329 -5.25269,1.27958 -5.25269,1.39176 0,0.11218 1.95305,0.93612 4.34012,1.83097 2.38707,0.89484 4.34013,1.75205 4.34013,1.9049 0,0.15285 -0.11268,0.28331 -0.25039,0.28991 -0.13772,0.007 -0.67315,0.35795 -1.18986,0.78076 l -0.93947,0.76874 1.31273,4.31055 c 1.19803,3.93392 1.9926,7.81604 1.59973,7.81604 -0.0869,0 -0.25166,-0.71362 -0.36616,-1.58581 z m -3.98862,-17.74269 5.63552,-1.30028 5.66939,1.31632 5.6694,1.31633 2.02065,-0.76152 c 1.11136,-0.41883 2.14622,-0.72223 2.29967,-0.67421 0.44686,0.13982 2.53543,-1.26749 2.9045,-1.9571 0.25996,-0.48575 0.18653,-0.78097 -0.32033,-1.28783 -0.66521,-0.66521 -2.69625,-1.84012 -2.69625,-1.55972 0,0.0837 -0.91897,-0.2213 -2.04215,-0.67769 l -2.04214,-0.82979 -5.0523,1.22836 c -2.77876,0.67559 -5.65323,1.23156 -6.38771,1.23547 -0.73448,0.004 -3.60093,-0.54839 -6.36989,-1.22734 l -5.03447,-1.23446 -1.80958,0.71707 c -0.99527,0.39439 -2.09665,0.7739 -2.44753,0.84334 -1.01122,0.20016 -3.20139,1.77484 -3.20139,2.30174 0,0.62002 2.13779,2.25071 3.09779,2.36295 0.40785,0.0477 1.49273,0.39395 2.41083,0.76947 0.91811,0.37552 1.7573,0.69096 1.86488,0.70097 0.10757,0.01 2.73157,-0.56692 5.83111,-1.28208 z M 0.47209,57.67835 C 0.82355,57.44622 1.57472,56.8517 2.14137,56.35721 3.37687,55.27903 3.15995,54.66353 1.13649,53.5059 0.41961,53.09577 -0.00135,52.75774 0.20102,52.75472 c 0.52532,-0.008 2.50866,1.39163 2.92811,2.06611 0.27825,0.44741 0.17778,0.75787 -0.46945,1.4506 -0.45291,0.48476 -1.27418,1.09458 -1.82504,1.35518 -0.56553,0.26753 -0.72337,0.29006 -0.36255,0.0517 z M 109.3378,57.46977 c -1.64106,-1.01368 -2.36625,-1.99657 -1.95777,-2.65348 0.41715,-0.67084 2.4016,-2.06938 2.92525,-2.06156 0.20237,0.003 -0.21859,0.34105 -0.93547,0.75117 -2.02346,1.15763 -2.24038,1.77314 -1.00487,2.85131 0.56664,0.4945 1.31781,1.07804 1.66927,1.29676 0.35146,0.21873 0.5639,0.40596 0.47209,0.41608 -0.0918,0.0101 -0.61763,-0.26001 -1.1685,-0.60028 z M 6.34536,49.36058 C 5.79334,48.59855 5.33053,47.88493 5.31689,47.77477 5.168,46.57266 4.6361,45.05558 2.50777,39.76257 1.14146,36.36468 0.07312,33.53504 0.13367,33.47449 c 0.0605,-0.0606 0.9187,1.86581 1.907,4.2808 l 1.7969,4.39089 1.11105,-4.46376 C 5.5597,35.22735 6.05608,32.46749 6.0517,31.54938 6.0477,30.63128 5.54775,27.87264 4.94154,25.41906 l -1.1022,-4.46104 -1.79181,4.39415 c -0.98549,2.41679 -1.84217,4.3438 -1.90371,4.28225 -0.0616,-0.0616 1.00181,-2.88591 2.36302,-6.27637 1.3612,-3.39046 2.54974,-6.59846 2.64118,-7.1289 0.19286,-1.11873 1.68255,-3.49435 2.35241,-3.7514 0.73186,-0.28084 2.04092,0.78513 2.62284,2.13579 0.29493,0.68454 1.50378,3.87373 2.68633,7.0871 1.18255,3.21336 2.32146,6.28319 2.53089,6.82184 l 0.38079,0.97936 1.14579,-1.61157 c 1.42438,-2.00342 1.4392,-2.01772 1.37815,-1.32912 -0.0333,0.37564 0.39735,0.72863 1.28535,1.05356 2.52007,0.92215 5.67785,1.8124 8.01254,2.25894 1.34833,0.25789 1.90457,0.45972 1.31484,0.47711 -1.17979,0.0348 -5.26986,-0.9914 -8.62854,-2.16486 -1.27468,-0.44534 -2.40408,-0.80869 -2.50978,-0.80743 -0.10571,0.001 -0.54959,0.52707 -0.98641,1.16849 -0.43681,0.64142 -0.90751,1.16621 -1.046,1.16621 -0.13848,0 -0.98016,-1.95305 -1.8704,-4.34012 -0.89023,-2.38707 -1.69876,-4.34013 -1.79672,-4.34013 -0.0979,0 -0.72041,2.3687 -1.38322,5.26377 l -1.20513,5.26376 1.1878,5.2527 c 0.65328,2.88898 1.28927,5.25269 1.4133,5.25269 0.12404,0 0.94401,-1.95305 1.82217,-4.34012 0.87816,-2.38707 1.72038,-4.34013 1.87161,-4.34013 0.15123,0 0.42795,0.26291 0.61492,0.58425 1.11777,1.92095 0.95027,1.90034 5.07754,0.62446 3.78263,-1.16935 7.89254,-2.0554 8.18362,-1.76431 0.0847,0.0847 -0.89899,0.33168 -2.18606,0.54877 -1.28707,0.21709 -3.88844,0.88095 -5.78082,1.47522 -2.71156,0.85154 -3.43007,1.20427 -3.39061,1.66453 0.0608,0.70923 0.0505,0.69942 -1.37815,-1.31001 -1.12434,-1.5814 -1.1515,-1.59636 -1.45079,-0.79914 -0.16775,0.44684 -1.39303,3.74202 -2.72284,7.32263 -2.76594,7.44746 -3.11162,8.19775 -3.99469,8.67035 -1.02098,0.54641 -1.28882,0.42784 -2.35339,-1.04176 z m 2.52234,0.7178 c 0.24183,0 1.36657,-2.47034 2.13672,-4.69301 l 0.75852,-2.18909 -1.33843,-5.82345 -1.33842,-5.82345 1.3262,-5.67555 1.3262,-5.67555 -0.56286,-1.8362 C 9.69703,13.5385 8.39782,11.96739 7.02381,13.3414 c -0.6779,0.6779 -1.82088,2.68369 -1.52927,2.68369 0.0935,0 -0.19321,1.00058 -0.63711,2.22353 l -0.8071,2.22353 1.19209,4.8709 c 0.65566,2.679 1.18173,5.54697 1.16906,6.37326 -0.0127,0.82629 -0.55511,3.63573 -1.20541,6.2432 l -1.18237,4.74085 0.82306,2.18666 c 0.45268,1.20266 0.74537,2.18666 0.65042,2.18666 -0.30032,0 0.85281,2.00987 1.55736,2.71442 0.37168,0.37167 0.9018,0.58903 1.17805,0.48303 0.27625,-0.10601 0.56205,-0.19275 0.63511,-0.19275 z m 44.9005,-0.69667 c -0.56043,-0.77365 -1.03046,-1.49678 -1.04451,-1.60694 -0.0935,-0.73282 -0.50052,-1.83718 -2.61364,-7.09081 -1.30276,-3.23893 -2.36866,-6.05584 -2.36866,-6.25981 0,-0.76223 -0.65939,-0.32467 -1.70513,1.1315 -0.5934,0.8263 -1.11186,1.50235 -1.15214,1.50235 -0.0403,0 -0.0524,-0.25355 -0.0269,-0.56345 0.0523,-0.63611 -3.81905,-2.00924 -8.80081,-3.12152 -2.29638,-0.51272 -2.48746,-0.59652 -1.00157,-0.43924 1.00992,0.10691 3.77596,0.78772 6.14676,1.51294 l 4.31055,1.31858 0.76875,-0.93947 c 0.42281,-0.51671 0.77414,-1.05214 0.78075,-1.18986 0.007,-0.13771 0.13706,-0.25039 0.28991,-0.25039 0.15285,0 1.01006,1.95306 1.90491,4.34013 0.89484,2.38707 1.71953,4.34012 1.83263,4.34012 0.29119,0 2.46271,-9.2999 2.45484,-10.51328 -0.01,-1.53232 -2.2129,-10.57067 -2.50483,-10.27683 -0.14097,0.14189 -0.93181,2.03946 -1.75743,4.21683 -0.82562,2.17737 -1.58851,4.04624 -1.69532,4.15306 -0.10682,0.10681 -0.4039,-0.0972 -0.66018,-0.45337 -1.53088,-2.1275 -1.21973,-2.01549 -3.39787,-1.22323 -3.04958,1.10923 -8.19929,2.41545 -9.30811,2.361 l -1.00157,-0.0492 1.00157,-0.13593 c 1.55574,-0.21114 7.31303,-1.75539 9.08743,-2.43748 1.02833,-0.3953 1.57947,-0.80079 1.54959,-1.14008 -0.0255,-0.28963 -0.0134,-0.52659 0.0269,-0.52659 0.0403,0 0.55874,0.67606 1.15214,1.50235 1.21636,1.69376 1.56004,1.8304 1.88935,0.75118 0.12607,-0.41315 1.20055,-3.23006 2.38775,-6.2598 1.18719,-3.02974 2.21927,-5.80909 2.29349,-6.17633 0.22618,-1.11898 1.9716,-3.33856 2.62537,-3.33856 0.75371,0 2.57833,2.18315 2.70561,3.23726 0.0511,0.42295 1.06504,3.24789 2.25326,6.27763 1.18821,3.02974 2.26353,5.84665 2.3896,6.2598 0.32931,1.07922 0.67299,0.94258 1.88935,-0.75118 0.5934,-0.82629 1.11186,-1.50235 1.15214,-1.50235 0.0403,0 0.0524,0.23696 0.0269,0.52659 -0.0299,0.33929 0.52126,0.74478 1.54959,1.14008 1.7744,0.68209 7.53169,2.22634 9.08743,2.43748 l 1.00157,0.13593 -1.00157,0.0492 c -1.10882,0.0544 -6.25853,-1.25177 -9.30811,-2.361 -2.17814,-0.79226 -1.86699,-0.90427 -3.39787,1.22323 -0.25628,0.35616 -0.55336,0.56018 -0.66018,0.45337 -0.10681,-0.10682 -0.8697,-1.97569 -1.69532,-4.15306 -0.82562,-2.17737 -1.60875,-4.06723 -1.74028,-4.19969 -0.13154,-0.13245 -0.78048,2.12357 -1.44209,5.01338 l -1.20294,5.2542 1.1878,5.2527 c 0.65328,2.88898 1.27957,5.25269 1.39176,5.25269 0.11218,0 0.93612,-1.95305 1.83096,-4.34012 0.89485,-2.38707 1.75206,-4.34013 1.90491,-4.34013 0.15285,0 0.28331,0.11268 0.28991,0.25039 0.007,0.13772 0.35795,0.67315 0.78075,1.18986 l 0.76875,0.93947 4.31055,-1.31858 c 2.37079,-0.72522 5.13684,-1.40603 6.14675,-1.51294 1.48589,-0.15728 1.29481,-0.0735 -1.00157,0.43924 -4.98176,1.11228 -8.85316,2.48541 -8.80081,3.12152 0.0255,0.3099 0.0134,0.56345 -0.0269,0.56345 -0.0403,0 -0.55875,-0.67605 -1.15215,-1.50235 -1.04573,-1.45617 -1.70512,-1.89373 -1.70512,-1.1315 0,0.20397 -1.06514,3.02088 -2.36698,6.2598 -1.30184,3.23893 -2.40883,6.235 -2.45997,6.65795 -0.11313,0.93566 -1.88624,3.19726 -2.62003,3.34186 -0.31282,0.0616 -0.94917,-0.473 -1.54973,-1.30205 z m 2.86091,-0.16143 c 0.50003,-0.65558 0.92816,-1.45005 0.9514,-1.76549 0.0232,-0.31544 0.37654,-1.4692 0.78512,-2.56392 l 0.74285,-1.99039 -1.30827,-5.66418 -1.30828,-5.66419 1.31632,-5.66939 1.31633,-5.6694 -0.76152,-2.02065 c -0.41884,-1.11136 -0.72223,-2.14621 -0.67421,-2.29967 0.13982,-0.44686 -1.2675,-2.53543 -1.9571,-2.90449 -0.48576,-0.25997 -0.78097,-0.18654 -1.28783,0.32032 -0.66521,0.66521 -1.84012,2.69626 -1.55972,2.69626 0.0837,0 -0.2213,0.91896 -0.67769,2.04214 l -0.8298,2.04215 1.22836,5.05229 c 0.6756,2.77876 1.23156,5.65323 1.23548,6.38771 0.004,0.73448 -0.54839,3.60093 -1.22735,6.36989 l -1.23445,5.03447 0.71707,1.80958 c 0.39439,0.99527 0.77389,2.09665 0.84334,2.44753 0.20016,1.01122 1.77484,3.20139 2.30174,3.20139 0.26348,0 0.88817,-0.53638 1.38821,-1.19196 z m 45.11347,1.1697 c -0.82571,-0.48727 -1.2079,-1.32932 -3.92972,-8.65799 -1.32981,-3.58061 -2.55509,-6.87579 -2.72284,-7.32263 -0.29929,-0.79722 -0.32645,-0.78226 -1.45079,0.79914 -1.42865,2.00943 -1.43897,2.01924 -1.37815,1.31001 0.0395,-0.46026 -0.67905,-0.81299 -3.39061,-1.66453 -1.89238,-0.59427 -4.49374,-1.25813 -5.78082,-1.47522 -1.28707,-0.21709 -2.2708,-0.46404 -2.18606,-0.54877 0.29108,-0.29109 4.40099,0.59496 8.18362,1.76431 4.12727,1.27588 3.95977,1.29649 5.07754,-0.62446 0.18697,-0.32134 0.46369,-0.58425 0.61492,-0.58425 0.15123,0 0.99345,1.95306 1.87161,4.34013 0.87816,2.38707 1.69766,4.34012 1.82113,4.34012 0.12347,0 0.76726,-2.3941 1.43065,-5.32022 1.14513,-5.05096 1.18303,-5.40793 0.74896,-7.05343 -0.25147,-0.95326 -0.78583,-3.29157 -1.18747,-5.19624 -0.40163,-1.90466 -0.82614,-3.46303 -0.94335,-3.46303 -0.11721,0 -0.94149,1.95306 -1.83172,4.34013 -0.89024,2.38707 -1.73192,4.34012 -1.8704,4.34012 -0.13849,0 -0.60919,-0.52479 -1.046,-1.16621 -0.43682,-0.64142 -0.8807,-1.16724 -0.9864,-1.16849 -0.10571,-0.001 -1.23511,0.36209 -2.50979,0.80743 -3.35868,1.17346 -7.44875,2.19963 -8.62854,2.16486 -0.58973,-0.0174 -0.0335,-0.21922 1.31484,-0.47711 2.33469,-0.44654 5.49247,-1.33679 8.01254,-2.25894 0.888,-0.32493 1.31864,-0.67792 1.28535,-1.05356 -0.0611,-0.6886 -0.0462,-0.6743 1.37815,1.32912 l 1.14579,1.61157 0.38079,-0.97936 c 0.20943,-0.53865 1.34833,-3.60848 2.53089,-6.82184 1.18255,-3.21337 2.3914,-6.40256 2.68633,-7.0871 0.58193,-1.35066 1.89098,-2.41663 2.62284,-2.13579 0.563,0.21604 2.13029,2.53791 2.30191,3.41017 0.0967,0.49119 4.1689,11.20912 5.09432,13.40793 0.0966,0.22953 0.0984,0.41732 0.004,0.41732 -0.0944,0 -0.89051,-1.84038 -1.76916,-4.08973 -1.51269,-3.87246 -2.13695,-5.15613 -2.13695,-4.39425 0,0.1814 -0.52377,2.57391 -1.16394,5.31668 l -1.16394,4.98686 1.19376,5.35002 c 0.65656,2.94251 1.23242,5.38959 1.27968,5.43794 0.0473,0.0484 0.87526,-1.95217 1.84,-4.44562 0.96474,-2.49345 1.80998,-4.47764 1.87831,-4.40931 0.0683,0.0683 -1.05543,3.15115 -2.49724,6.85072 -1.4418,3.69958 -2.56125,6.78672 -2.48766,6.86031 0.25391,0.25391 -2.05185,3.39611 -2.55139,3.47694 -0.27543,0.0446 -0.76369,-0.0741 -1.08503,-0.26375 z m 1.73499,-0.62769 c 0.65943,-0.65944 1.83082,-2.68861 1.55207,-2.68861 -0.0837,0 0.20867,-0.88789 0.64962,-1.97309 l 0.80174,-1.97308 -1.17815,-4.95443 c -0.64799,-2.72493 -1.18971,-5.63048 -1.20383,-6.45677 -0.0141,-0.82629 0.52869,-3.77588 1.20622,-6.55464 l 1.23188,-5.05229 -0.82979,-2.04215 c -0.45639,-1.12318 -0.76135,-2.04214 -0.67769,-2.04214 0.27769,0 -0.89144,-2.02798 -1.54715,-2.68369 -0.94989,-0.94988 -2.11176,-0.29839 -2.92836,1.64201 -1.91498,4.55037 -1.90955,4.44718 -0.55121,10.46183 0.67527,2.99004 1.28468,5.53166 1.35425,5.64804 0.0696,0.11639 -0.49008,2.88717 -1.24366,6.15731 l -1.37015,5.94569 0.75852,2.18909 c 1.30172,3.75678 1.9968,4.88698 3.07534,5.00051 0.13772,0.0145 0.54288,-0.26612 0.90035,-0.6236 z M 30.09705,28.85795 c -0.062,-1.26763 -1.16865,-5.53812 -2.19334,-8.46418 -0.56299,-1.60767 -0.92282,-2.18516 -1.3387,-2.14855 -0.69276,0.061 -0.67941,0.0471 1.32526,-1.37815 l 1.61157,-1.14579 -0.97937,-0.38079 C 27.98382,15.13106 24.914,13.99216 21.70063,12.8096 18.48727,11.62705 15.29808,10.4182 14.61354,10.12327 13.26288,9.54135 12.1969,8.2323 12.47775,7.50043 c 0.25704,-0.66985 2.63267,-2.15955 3.7514,-2.35241 0.53044,-0.0914 3.73844,-1.27997 7.1289,-2.64118 3.39045,-1.36121 6.21482,-2.42457 6.27637,-2.36302 0.0616,0.0616 -1.86546,0.91822 -4.28225,1.90371 l -4.39415,1.79182 4.46104,1.10219 c 2.45357,0.60621 5.21222,1.11041 6.13032,1.12044 1.45387,0.0159 10.7399,-1.95609 10.45563,-2.22036 -0.0584,-0.0543 -2.02513,-0.88719 -4.37061,-1.85098 -2.34549,-0.9638 -4.21621,-1.80066 -4.15717,-1.85971 0.0591,-0.059 2.87949,1.00576 6.26765,2.36623 3.38817,1.36046 6.5943,2.55087 7.12473,2.64535 1.12355,0.20011 3.49569,1.69153 3.75175,2.3588 0.26075,0.6795 -0.43816,1.77564 -1.47098,2.30702 -0.49951,0.257 -3.83779,1.5553 -7.41839,2.88511 -3.58061,1.32982 -6.87579,2.55509 -7.32263,2.72284 -0.79722,0.29929 -0.78226,0.32645 0.79914,1.45079 2.00943,1.42865 2.01924,1.43897 1.31001,1.37816 -0.46026,-0.0395 -0.81299,0.67904 -1.66453,3.3906 -0.59427,1.89238 -1.25813,4.49375 -1.47521,5.78082 -0.2171,1.28707 -0.46405,2.2708 -0.54878,2.18606 -0.29109,-0.29108 0.59496,-4.40099 1.76431,-8.18362 1.27588,-4.12727 1.29649,-3.95976 -0.62446,-5.07754 -0.32134,-0.18697 -0.58425,-0.46369 -0.58425,-0.61492 0,-0.15123 1.95306,-0.99345 4.34013,-1.87161 2.38707,-0.87816 4.34012,-1.72567 4.34012,-1.88335 0,-0.15769 -0.12101,-0.28671 -0.26891,-0.28671 -0.14789,0 -2.5056,-0.50835 -5.23935,-1.12966 l -4.97046,-1.12965 -5.2771,1.20817 c -2.9024,0.6645 -5.2771,1.28833 -5.2771,1.38629 0,0.0979 1.95306,0.90648 4.34013,1.79672 2.38707,0.89023 4.34012,1.73191 4.34012,1.8704 0,0.13848 -0.52479,0.60918 -1.16621,1.04599 -0.64142,0.43682 -1.16724,0.8807 -1.1685,0.98641 -0.001,0.1057 0.36648,1.24765 0.81718,2.53765 1.26962,3.63393 2.24403,7.69105 2.09055,8.70434 -0.1373,0.9065 -0.13977,0.90514 -0.18914,-0.10367 z M 26.01697,10.37419 c 5.36076,-1.24466 5.73519,-1.28862 7.42514,-0.87163 0.97883,0.24153 3.58901,0.84957 5.8004,1.3512 l 4.02071,0.91207 2.41494,-0.87112 C 49.7996,9.40803 50.67583,8.75405 50.20171,7.51851 49.95821,6.88396 48.01552,5.68105 46.91069,5.4807 46.44091,5.3955 45.34083,5.04371 44.46607,4.69891 L 42.8756,4.072 38.21406,5.21593 C 35.65021,5.84509 32.80134,6.37762 31.88324,6.39933 30.96513,6.42103 28.02205,5.9014 25.34305,5.24457 l -4.8709,-1.19424 -2.22354,0.8071 c -1.22294,0.4439 -2.22353,0.7306 -2.22353,0.63711 0,-0.29161 -2.00578,0.85137 -2.68368,1.52927 -0.87976,0.87977 -0.322,2.07548 1.30317,2.79365 1.61173,0.71225 4.77958,1.81254 5.30648,1.8431 0.23126,0.0134 2.96093,-0.56545 6.06592,-1.28637 z m 51.11057,17.04246 c -0.21709,-1.28707 -0.88095,-3.88844 -1.47522,-5.78082 -0.85154,-2.71156 -1.20427,-3.43007 -1.66453,-3.39061 -0.70923,0.0608 -0.69942,0.0505 1.31001,-1.37815 1.5814,-1.12434 1.59636,-1.1515 0.79914,-1.45079 C 75.6501,15.24853 72.35492,14.02326 68.77431,12.69344 65.19371,11.36363 61.85543,10.06533 61.35592,9.80833 60.3231,9.27695 59.6242,8.18081 59.88494,7.50131 c 0.25606,-0.66727 2.6282,-2.15869 3.75175,-2.3588 0.53043,-0.0945 3.73656,-1.28489 7.12473,-2.64535 3.38816,-1.36047 6.20984,-2.42404 6.27039,-2.36349 0.0606,0.0605 -1.86581,0.9187 -4.2808,1.907 l -4.39089,1.79691 4.46376,1.11104 c 2.45507,0.61108 5.21493,1.10747 6.13304,1.10309 0.9181,-0.004 3.67675,-0.50396 6.13032,-1.11017 L 89.54828,3.83935 85.15413,2.04753 c -2.41679,-0.98549 -4.3438,-1.84216 -4.28225,-1.90371 0.0616,-0.0616 2.88592,1.00181 6.27637,2.36302 3.39046,1.36121 6.59846,2.54974 7.1289,2.64118 1.11873,0.19286 3.49436,1.68256 3.7514,2.35241 0.28085,0.73187 -0.78513,2.04092 -2.13579,2.62284 -0.68454,0.29493 -3.87373,1.50378 -7.08709,2.68633 -3.21337,1.18256 -6.28319,2.32146 -6.82184,2.53089 l -0.97937,0.38079 1.61157,1.14579 c 2.01169,1.43026 2.01985,1.43889 1.30253,1.37815 -0.47691,-0.0404 -0.8397,0.75765 -1.87267,4.11927 -0.70464,2.29313 -1.42006,4.92225 -1.5898,5.84248 l -0.30864,1.67313 0.13397,-1.66928 c 0.0737,-0.9181 0.75182,-3.67574 1.50697,-6.12809 1.49581,-4.85767 1.5127,-4.62179 -0.41102,-5.74117 -0.32133,-0.18698 -0.58424,-0.46735 -0.58424,-0.62305 0,-0.15569 1.95305,-1.01145 4.34012,-1.90168 2.38707,-0.89024 4.34013,-1.69877 4.34013,-1.79672 0,-0.098 -2.3687,-0.72041 -5.26377,-1.38323 l -5.26376,-1.20513 -5.2527,1.1878 c -2.88898,0.65328 -5.25269,1.28927 -5.25269,1.41331 0,0.12403 1.95305,0.944 4.34012,1.82216 2.38707,0.87816 4.34013,1.72038 4.34013,1.87161 0,0.15123 -0.26291,0.42795 -0.58425,0.61492 -1.92095,1.11778 -1.90034,0.95027 -0.62446,5.07754 1.16935,3.78263 2.0554,7.89254 1.76431,8.18362 -0.0847,0.0847 -0.33168,-0.89899 -0.54877,-2.18606 z m -3.82887,-17.03197 5.63552,-1.30029 5.68691,1.3242 c 6.20418,1.44464 5.91053,1.44813 10.11073,-0.12031 C 96.80733,9.51324 97.48592,8.91222 97.48592,7.849 97.48592,6.98812 95.82891,5.75464 94.3,5.4774 93.82018,5.3904 92.67152,5.03191 91.74742,4.68078 L 90.06723,4.04236 85.17979,5.23844 C 82.49169,5.89629 79.61628,6.42415 78.78999,6.41148 77.9637,6.39878 75.14695,5.85458 72.53056,5.20209 L 67.77347,4.01573 66.11162,4.67077 c -0.91402,0.36027 -2.04623,0.72474 -2.51601,0.80993 -1.12276,0.2036 -3.04898,1.40709 -3.3003,2.062 -0.31174,0.8124 0.31304,1.63641 1.69814,2.23965 2.25578,0.98245 4.59683,1.8334 5.14025,1.86846 0.29119,0.0188 3.06543,-0.55098 6.16497,-1.26613 z M 0,10.53003 C 0,10.43823 0.58241,10.06598 1.29425,9.70283 3.46323,8.59629 3.38256,7.24549 1.07472,6.02685 0.39182,5.66625 -0.04679,5.36457 0.10004,5.35645 0.59582,5.32905 2.16735,6.27016 2.80807,6.97815 3.68246,7.94434 3.12461,9.1029 1.34878,10.00887 0.60695,10.38732 0,10.62185 0,10.53003 z M 109.07333,9.98572 c -1.70366,-0.89911 -2.23383,-2.05868 -1.3751,-3.00757 0.64072,-0.70799 2.21225,-1.6491 2.70803,-1.6217 0.14683,0.008 -0.29178,0.3098 -0.97468,0.6704 -2.30784,1.21864 -2.38851,2.56944 -0.21953,3.67598 0.71184,0.36315 1.29425,0.73234 1.29425,0.82042 0,0.21853 -10e-4,0.21805 -1.43297,-0.53753 z M 6.77703,2.58739 C 6.03793,1.77592 5.3327,0.54378 5.35645,0.10541 5.36445,-0.04437 5.66625,0.39182 6.02685,1.07473 7.24549,3.38257 8.59629,3.46324 9.70283,1.29425 10.06598,0.58241 10.43822,0 10.53003,0 10.92406,0 9.28657,2.68022 8.70111,2.99354 7.78525,3.4837 7.54775,3.43356 6.77703,2.58739 z m 47.40754,0 C 53.45559,1.78703 52.74566,0.55472 52.75472,0.10541 c 0.003,-0.14978 0.34105,0.3142 0.75118,1.03108 1.15763,2.02346 1.77313,2.24039 2.85131,1.00488 0.49449,-0.56665 1.08994,-1.31782 1.32321,-1.66928 0.36146,-0.54458 0.36777,-0.51567 0.0427,0.19562 -0.4847,1.06052 -1.97647,2.67085 -2.47421,2.67085 -0.20906,0 -0.68801,-0.33803 -1.06431,-0.75117 z m 47.55567,0.38926 C 101.18904,2.65566 99.61529,0 99.97627,0 c 0.0918,0 0.46405,0.58241 0.8272,1.29425 1.10654,2.16899 2.45735,2.08832 3.67598,-0.21952 0.3606,-0.68291 0.66229,-1.1191 0.6704,-0.96932 0.0439,0.81079 -1.81418,3.24136 -2.46389,3.223 -0.19752,-0.006 -0.6231,-0.16388 -0.94572,-0.35176 z" style="fill:#000000"/>
    </pattern>
    <clipPath clipPathUnits="userSpaceOnUse" id="clipPath5960">
      <g id="g5962" transform="translate(-210.112, -5.05076)" style="stroke:#653700;stroke-opacity:1">
        <path id="path5964" style="fill:none;stroke:#653700;stroke-width:8.19999981;stroke-linecap:round;stroke-linejoin:miter;stroke-miterlimit:4;stroke-opacity:1;stroke-dasharray:16.39999962, 16.39999962;stroke-dashoffset:0" d="M 558.98017,181.59203 C 720.16873,2.0525105 887.0076,154.55188 859.38625,283.79075 831.7649,413.02962 559.99031,651.52535 559.99031,651.52535 m 10.4803,-469.93332 C 409.28205,2.0525111 242.44318,154.55188 270.06453,283.79075 c 27.62135,129.23887 299.39594,367.7346 299.39594,367.7346"/>
      </g>
    </clipPath>
  </defs>
  <sodipodi:namedview id="base" pagecolor="#ffffff" bordercolor="#666666" borderopacity="1.0" inkscape:pageopacity="0.0" inkscape:pageshadow="2" inkscape:zoom="0.35" inkscape:cx="322.16565" inkscape:cy="118.21241" inkscape:document-units="px" inkscape:current-layer="layer1" showgrid="false" inkscape:window-width="550" inkscape:window-height="483" inkscape:window-x="184" inkscape:window-y="184" inkscape:window-maximized="0"/>
  <metadata id="metadata5985">
    <rdf:RDF>
      <cc:Work rdf:about="">
        <dc:format>image/svg+xml</dc:format>
        <dc:type rdf:resource="http://purl.org/dc/dcmitype/StillImage"/>
        <dc:title/>
      </cc:Work>
    </rdf:RDF>
  </metadata>
  <g inkscape:label="Layer 1" inkscape:groupmode="layer" id="layer1" transform="translate(-52.8343, -90.4029)">
    <g transform="translate(2.45881e-07, 2.50123e-06)" id="g5973">
      <g style="fill:none;stroke:#0f3700;stroke-opacity:1" transform="translate(-210.112, -5.05076)" id="g3658">
        <g id="g5967">
          <rect style="fill:url(#pattern5922);fill-opacity:1;stroke:none" width="688.76727" height="628.08978" x="4.0381565" y="35.081078" id="rect5340" clip-path="url(#clipPath5960)" transform="translate(210.112, 5.05076)"/>
          <path id="path2816-4-0" style="fill:none;stroke:#0f3700;stroke-width:8.19999981;stroke-linecap:round;stroke-linejoin:miter;stroke-miterlimit:4;stroke-opacity:1;stroke-dasharray:16.39999962, 16.39999962;stroke-dashoffset:0" d="M 558.98017,181.59203 C 720.16873,2.0525105 887.0076,154.55188 859.38625,283.79075 831.7649,413.02962 559.99031,651.52535 559.99031,651.52535 m 10.4803,-469.93332 C 409.28205,2.0525111 242.44318,154.55188 270.06453,283.79075 c 27.62135,129.23887 299.39594,367.7346 299.39594,367.7346"/>
        </g>
      </g>
      <rect y="176.9328" x="353.03549" height="462.54565" width="3.4462488" id="rect5971" style="fill:none;stroke:#0f3700;stroke-width:5.24122906;stroke-linecap:round;stroke-linejoin:round;stroke-miterlimit:4;stroke-opacity:1;stroke-dasharray:none;stroke-dashoffset:0"/>
    </g>
  </g>
</svg>